<svg width="107" height="68" viewBox="0 0 107 68" fill="none" xmlns="http://www.w3.org/2000/svg">
<path d="M9.136 12.312C9.27467 12.6213 9.28 12.9253 9.152 13.224C9.024 13.512 8.82133 13.7787 8.544 14.024C8.26667 14.2693 7.94667 14.4827 7.584 14.664C7.232 14.8453 6.896 14.9733 6.576 15.048C6.224 15.1227 5.85067 15.1547 5.456 15.144C5.072 15.144 4.68267 15.096 4.288 15C3.904 14.9147 3.52533 14.7867 3.152 14.616C2.78933 14.4347 2.45333 14.216 2.144 13.96C1.77067 13.6507 1.47733 13.2827 1.264 12.856C1.06133 12.4187 0.912 11.9547 0.816 11.464C0.72 10.9733 0.666667 10.4827 0.656 9.992C0.656 9.49067 0.672 9.02133 0.704 8.584C0.736 8.18933 0.816 7.77867 0.944 7.352C1.072 6.92533 1.248 6.50933 1.472 6.104C1.70667 5.688 1.984 5.304 2.304 4.952C2.63467 4.6 3.01867 4.30133 3.456 4.056C3.78667 3.864 4.15467 3.736 4.56 3.672C4.976 3.59733 5.392 3.58133 5.808 3.624C6.23467 3.656 6.63467 3.74667 7.008 3.896C7.392 4.03467 7.71733 4.22667 7.984 4.472C8.15467 4.62133 8.33067 4.82933 8.512 5.096C8.704 5.36267 8.84267 5.63467 8.928 5.912C9.01333 6.18933 9.01333 6.45067 8.928 6.696C8.85333 6.93067 8.64 7.09067 8.288 7.176C8.13867 7.21867 8.00533 7.22933 7.888 7.208C7.77067 7.176 7.664 7.128 7.568 7.064C7.472 6.98933 7.38133 6.904 7.296 6.808C7.21067 6.712 7.13067 6.616 7.056 6.52C6.8 6.21067 6.50133 6.00267 6.16 5.896C5.81867 5.77867 5.47733 5.752 5.136 5.816C4.80533 5.86933 4.49067 6.008 4.192 6.232C3.904 6.44533 3.68 6.72267 3.52 7.064C3.34933 7.42667 3.21067 7.82667 3.104 8.264C3.008 8.69067 2.95467 9.128 2.944 9.576C2.93333 10.0133 2.97067 10.44 3.056 10.856C3.152 11.272 3.312 11.64 3.536 11.96C3.70667 12.216 3.91467 12.424 4.16 12.584C4.416 12.744 4.688 12.856 4.976 12.92C5.264 12.984 5.552 12.9947 5.84 12.952C6.13867 12.9093 6.42667 12.8133 6.704 12.664C6.78933 12.6213 6.88 12.5627 6.976 12.488C7.08267 12.4027 7.18933 12.3173 7.296 12.232C7.40267 12.1467 7.50933 12.0667 7.616 11.992C7.73333 11.9173 7.856 11.864 7.984 11.832C8.176 11.768 8.384 11.7733 8.608 11.848C8.84267 11.9227 9.01867 12.0773 9.136 12.312ZM12.4026 8.264C12.7226 8.104 13.0586 7.992 13.4106 7.928C13.7626 7.85333 14.1093 7.83733 14.4506 7.88C14.8026 7.912 15.1386 8.00267 15.4586 8.152C15.7786 8.29067 16.0773 8.49333 16.3546 8.76C16.632 9.03733 16.8453 9.34133 16.9946 9.672C17.144 10.0027 17.2506 10.3707 17.3146 10.776C17.3573 11.0533 17.4266 11.3093 17.5226 11.544C17.6186 11.7787 17.72 12.0133 17.8266 12.248C17.944 12.4827 18.0506 12.7173 18.1466 12.952C18.2533 13.1867 18.3386 13.432 18.4026 13.688C18.456 13.9333 18.4346 14.1733 18.3386 14.408C18.2533 14.632 18.072 14.7707 17.7946 14.824C17.6346 14.856 17.48 14.8453 17.3306 14.792C17.192 14.728 17.064 14.6427 16.9466 14.536C16.8293 14.4187 16.7226 14.296 16.6266 14.168C16.5413 14.0293 16.4613 13.9013 16.3866 13.784C16.1413 14.104 15.8746 14.3547 15.5866 14.536C15.2986 14.7067 14.952 14.8187 14.5466 14.872C14.2053 14.9147 13.88 14.9253 13.5706 14.904C13.2613 14.8827 12.9306 14.824 12.5786 14.728C12.12 14.6107 11.7413 14.408 11.4426 14.12C11.1546 13.8213 10.9306 13.48 10.7706 13.096C10.6213 12.7013 10.5413 12.28 10.5306 11.832C10.52 11.384 10.5733 10.9413 10.6906 10.504C10.84 9.928 11.064 9.45867 11.3626 9.096C11.6613 8.73333 12.008 8.456 12.4026 8.264ZM12.8026 10.136C12.6533 10.2853 12.536 10.4613 12.4506 10.664C12.3653 10.8667 12.312 11.08 12.2906 11.304C12.28 11.528 12.3013 11.752 12.3546 11.976C12.408 12.2 12.4933 12.3973 12.6106 12.568C12.7173 12.7173 12.8986 12.8453 13.1546 12.952C13.4106 13.048 13.6773 13.1067 13.9546 13.128C14.2746 13.1493 14.552 13.064 14.7866 12.872C15.032 12.68 15.2133 12.44 15.3306 12.152C15.4586 11.8533 15.5173 11.5387 15.5066 11.208C15.496 10.8667 15.4053 10.5573 15.2346 10.28C15.1066 10.0773 14.936 9.928 14.7226 9.832C14.52 9.736 14.3013 9.688 14.0666 9.688C13.832 9.67733 13.5973 9.71467 13.3626 9.8C13.1386 9.87467 12.952 9.98667 12.8026 10.136ZM21.8618 13.72C21.8511 13.7733 21.8404 13.8267 21.8298 13.88C21.8298 13.9227 21.8298 13.9707 21.8298 14.024L21.7338 14.36C21.7124 14.4027 21.6964 14.4293 21.6858 14.44L21.6378 14.536C21.5844 14.6533 21.4884 14.7493 21.3498 14.824C21.0938 14.952 20.8218 14.984 20.5338 14.92C20.3524 14.8987 20.2084 14.8453 20.1018 14.76C19.9951 14.6853 19.9204 14.5947 19.8778 14.488C19.8351 14.3813 19.8031 14.2747 19.7818 14.168C19.7498 14.0613 19.7338 13.9653 19.7338 13.88V4.92C19.7338 4.84533 19.7338 4.78133 19.7338 4.728C19.7444 4.664 19.7551 4.60533 19.7658 4.552C19.7764 4.47733 19.7871 4.41333 19.7978 4.36C19.8191 4.30667 19.8404 4.248 19.8618 4.184C19.8938 4.07733 19.9524 3.992 20.0378 3.928C20.1658 3.832 20.2884 3.77867 20.4058 3.768C20.4804 3.74667 20.5498 3.736 20.6138 3.736C20.6778 3.72533 20.7524 3.72 20.8378 3.72C20.9871 3.72 21.1578 3.76267 21.3498 3.848C21.4991 3.93333 21.6058 4.05067 21.6698 4.2C21.7764 4.41333 21.8298 4.61067 21.8298 4.792C21.8404 4.89867 21.8458 5.05867 21.8458 5.272C21.8564 5.48533 21.8618 5.64533 21.8618 5.752V5.816C21.8831 6.15733 21.8938 6.488 21.8938 6.808C21.8938 7.11733 21.8884 7.45867 21.8778 7.832C21.8778 8.19467 21.8724 8.54667 21.8618 8.888C21.8618 9.21867 21.8618 9.54933 21.8618 9.88V13.24C21.8618 13.2827 21.8618 13.3253 21.8618 13.368C21.8724 13.4 21.8778 13.4373 21.8778 13.48C21.8778 13.5867 21.8724 13.6667 21.8618 13.72ZM29.1233 8.84C29.2086 8.98933 29.2513 9.14933 29.2513 9.32C29.2619 9.49067 29.2246 9.65067 29.1393 9.8C29.0433 9.992 28.9046 10.1253 28.7233 10.2C28.5526 10.264 28.3606 10.2693 28.1473 10.216C28.0513 10.1947 27.9659 10.1573 27.8913 10.104C27.8166 10.0507 27.7366 9.99733 27.6513 9.944C27.5766 9.88 27.4859 9.82133 27.3793 9.768C27.2833 9.71467 27.1553 9.67733 26.9953 9.656C26.8353 9.63467 26.6593 9.63467 26.4673 9.656C26.2859 9.67733 26.1206 9.72 25.9713 9.784C25.7366 9.90133 25.5499 10.0827 25.4113 10.328C25.2726 10.5627 25.1819 10.8187 25.1393 11.096C25.0966 11.3627 25.1019 11.6347 25.1553 11.912C25.2193 12.1893 25.3366 12.424 25.5073 12.616C25.6353 12.7653 25.8006 12.888 26.0033 12.984C26.2166 13.08 26.4193 13.1387 26.6113 13.16C26.7926 13.1813 26.9739 13.1813 27.1553 13.16C27.3366 13.128 27.5126 13.0853 27.6833 13.032C27.8113 12.9787 27.9553 12.9093 28.1153 12.824C28.2753 12.728 28.4299 12.6693 28.5793 12.648C28.7713 12.648 28.9206 12.7013 29.0273 12.808C29.1339 12.904 29.2086 13.0267 29.2513 13.176C29.2939 13.3147 29.2993 13.464 29.2673 13.624C29.2459 13.784 29.1873 13.9227 29.0913 14.04C28.9633 14.2 28.7819 14.3547 28.5473 14.504C28.3126 14.6427 28.0886 14.744 27.8753 14.808C27.6193 14.8933 27.3313 14.9413 27.0113 14.952C26.7019 14.9627 26.4086 14.952 26.1313 14.92C26.0033 14.8987 25.8699 14.872 25.7313 14.84C25.5926 14.808 25.4593 14.7707 25.3313 14.728C24.8619 14.5573 24.4673 14.3173 24.1473 14.008C23.8379 13.688 23.5979 13.3307 23.4273 12.936C23.2673 12.5413 23.1766 12.12 23.1553 11.672C23.1339 11.224 23.1873 10.7813 23.3153 10.344C23.4326 9.928 23.5766 9.576 23.7473 9.288C23.9286 9 24.1366 8.76533 24.3713 8.584C24.6166 8.392 24.8886 8.24267 25.1873 8.136C25.4859 8.01867 25.8166 7.91733 26.1793 7.832C26.5526 7.75733 26.9473 7.75733 27.3633 7.832C27.7793 7.90667 28.1526 8.04533 28.4833 8.248C28.7393 8.38667 28.9526 8.584 29.1233 8.84ZM32.5779 8.936C32.5779 9.23467 32.5779 9.57067 32.5779 9.944C32.5885 10.3173 32.5939 10.7067 32.5939 11.112C32.5939 11.5067 32.5939 11.9013 32.5939 12.296C32.5939 12.68 32.5885 13.0373 32.5779 13.368C32.5672 13.528 32.5512 13.704 32.5299 13.896C32.5085 14.0773 32.4659 14.248 32.4019 14.408C32.3379 14.568 32.2365 14.7013 32.0979 14.808C31.9699 14.904 31.7939 14.9467 31.5699 14.936C31.2392 14.9147 30.9992 14.7707 30.8499 14.504C30.7112 14.2373 30.6312 13.864 30.6099 13.384C30.6099 13.1387 30.6045 12.856 30.5939 12.536C30.5939 12.216 30.5885 11.8907 30.5779 11.56C30.5779 11.2293 30.5779 10.9093 30.5779 10.6C30.5779 10.28 30.5779 9.992 30.5779 9.736C30.5779 9.58667 30.5725 9.40533 30.5619 9.192C30.5619 8.97867 30.5672 8.76 30.5779 8.536C30.5885 8.312 30.6152 8.09867 30.6579 7.896C30.7005 7.68267 30.7699 7.50667 30.8659 7.368C30.9405 7.28267 31.0472 7.21867 31.1859 7.176C31.3245 7.12267 31.4685 7.096 31.6179 7.096C31.7779 7.096 31.9272 7.12267 32.0659 7.176C32.2152 7.22933 32.3219 7.304 32.3859 7.4C32.4285 7.464 32.4605 7.55467 32.4819 7.672C32.5032 7.78933 32.5192 7.92267 32.5299 8.072C32.5512 8.21067 32.5619 8.36 32.5619 8.52C32.5725 8.66933 32.5779 8.808 32.5779 8.936ZM31.9699 5.704C31.6392 5.78933 31.3619 5.75733 31.1379 5.608C30.9245 5.448 30.7912 5.21333 30.7379 4.904C30.6952 4.68 30.7112 4.48267 30.7859 4.312C30.8605 4.14133 30.9725 4.01333 31.1219 3.928C31.2712 3.832 31.4419 3.78933 31.6339 3.8C31.8259 3.81067 32.0179 3.88533 32.2099 4.024C32.3912 4.152 32.5192 4.30133 32.5939 4.472C32.6792 4.64267 32.7059 4.808 32.6739 4.968C32.6525 5.128 32.5832 5.27733 32.4659 5.416C32.3485 5.544 32.1832 5.64 31.9699 5.704ZM40.5598 11.192C40.5384 11.544 40.5171 11.9013 40.4958 12.264C40.4744 12.616 40.4158 12.9573 40.3198 13.288C40.2344 13.6187 40.0958 13.9173 39.9038 14.184C39.7224 14.4507 39.4611 14.664 39.1198 14.824C38.8211 14.9733 38.5011 15.0747 38.1598 15.128C37.8184 15.192 37.4771 15.2187 37.1358 15.208C36.7944 15.1973 36.4638 15.144 36.1438 15.048C35.8238 14.9627 35.5358 14.84 35.2798 14.68C35.0238 14.52 34.8158 14.312 34.6558 14.056C34.4958 13.8 34.3678 13.5227 34.2718 13.224C34.1864 12.9253 34.1278 12.616 34.0958 12.296C34.0638 11.976 34.0424 11.6773 34.0318 11.4C33.9891 10.664 33.9891 9.93867 34.0318 9.224C34.0318 9.08533 34.0318 8.93067 34.0318 8.76C34.0318 8.57867 34.0424 8.40267 34.0638 8.232C34.0958 8.06133 34.1438 7.90667 34.2078 7.768C34.2718 7.61867 34.3784 7.50667 34.5278 7.432C34.8478 7.26133 35.1411 7.25067 35.4078 7.4C35.6851 7.54933 35.8504 7.85867 35.9038 8.328C35.9358 8.57333 35.9464 8.84533 35.9358 9.144C35.9358 9.44267 35.9464 9.71467 35.9678 9.96C35.9784 10.3227 35.9891 10.7173 35.9998 11.144C36.0104 11.56 36.0691 11.9333 36.1758 12.264C36.2931 12.5947 36.4798 12.8453 36.7358 13.016C37.0024 13.176 37.3971 13.1813 37.9198 13.032C38.1651 12.9573 38.3251 12.7707 38.3998 12.472C38.4851 12.1733 38.5278 11.7307 38.5278 11.144C38.5278 10.888 38.5224 10.6053 38.5118 10.296C38.5011 9.98667 38.4958 9.68267 38.4958 9.384C38.4958 9.07467 38.5011 8.792 38.5118 8.536C38.5331 8.26933 38.5651 8.06667 38.6078 7.928C38.6611 7.736 38.7731 7.592 38.9438 7.496C39.1144 7.4 39.2958 7.352 39.4878 7.352C39.6798 7.34133 39.8611 7.37867 40.0318 7.464C40.2024 7.54933 40.3198 7.688 40.3838 7.88C40.4478 8.05067 40.4904 8.26933 40.5118 8.536C40.5438 8.792 40.5651 9.07467 40.5758 9.384C40.5864 9.68267 40.5864 9.992 40.5758 10.312C40.5758 10.6213 40.5704 10.9147 40.5598 11.192ZM50.8901 11.272C50.9115 11.6133 50.9221 11.9387 50.9221 12.248C50.9221 12.5467 50.9115 12.8667 50.8901 13.208C50.8901 13.336 50.8901 13.48 50.8901 13.64C50.8901 13.8 50.8795 13.9547 50.8581 14.104C50.8368 14.2533 50.7995 14.392 50.7461 14.52C50.6928 14.648 50.6128 14.7493 50.5061 14.824C50.3781 14.9093 50.2341 14.968 50.0741 15C49.9141 15.0213 49.7648 15.0107 49.6261 14.968C49.4875 14.9253 49.3648 14.8453 49.2581 14.728C49.1621 14.6107 49.1088 14.4453 49.0981 14.232C49.0661 13.7413 49.0501 13.2507 49.0501 12.76C49.0501 12.5147 49.0448 12.28 49.0341 12.056C49.0341 11.832 49.0395 11.5173 49.0501 11.112C49.0501 10.9093 49.0341 10.68 49.0021 10.424C48.9701 10.1573 48.8901 9.97067 48.7621 9.864C48.6661 9.77867 48.5595 9.73067 48.4421 9.72C48.3248 9.69867 48.2075 9.70933 48.0901 9.752C47.9835 9.79467 47.8875 9.87467 47.8021 9.992C47.7168 10.0987 47.6581 10.2373 47.6261 10.408C47.6261 10.5467 47.6208 10.6907 47.6101 10.84C47.6101 10.9787 47.6155 11.112 47.6261 11.24C47.6368 11.5813 47.6421 11.9067 47.6421 12.216C47.6421 12.5147 47.6368 12.8347 47.6261 13.176C47.6155 13.3147 47.6101 13.464 47.6101 13.624C47.6208 13.784 47.6208 13.944 47.6101 14.104C47.5995 14.2533 47.5675 14.392 47.5141 14.52C47.4715 14.648 47.3915 14.7493 47.2741 14.824C47.1461 14.9093 47.0075 14.9627 46.8581 14.984C46.7195 14.9947 46.5861 14.9733 46.4581 14.92C46.3408 14.856 46.2341 14.76 46.1381 14.632C46.0528 14.504 46.0048 14.3333 45.9941 14.12C45.9728 13.8747 45.9568 13.6507 45.9461 13.448C45.9461 13.2347 45.9461 13.0107 45.9461 12.776C45.9461 12.5307 45.9515 12.28 45.9621 12.024C45.9728 11.7573 45.9675 11.5013 45.9461 11.256C45.9461 11.1813 45.9408 11.096 45.9301 11C45.9301 10.8933 45.9248 10.7867 45.9141 10.68C45.9141 10.5733 45.9035 10.472 45.8821 10.376C45.8715 10.2693 45.8501 10.184 45.8181 10.12C45.7328 9.97067 45.5781 9.87467 45.3541 9.832C45.1408 9.78933 44.9595 9.80533 44.8101 9.88C44.6608 9.95467 44.5488 10.0507 44.4741 10.168C44.3995 10.2853 44.3461 10.4133 44.3141 10.552C44.2821 10.6907 44.2661 10.84 44.2661 11C44.2661 11.1493 44.2661 11.2933 44.2661 11.432C44.2661 12.1253 44.2661 12.728 44.2661 13.24C44.2768 13.7413 44.2235 14.1467 44.1061 14.456C44.0528 14.616 43.9408 14.7387 43.7701 14.824C43.6101 14.9093 43.4341 14.952 43.2421 14.952C43.0608 14.952 42.8901 14.9093 42.7301 14.824C42.5701 14.7387 42.4635 14.6053 42.4101 14.424C42.3781 14.3067 42.3461 14.1413 42.3141 13.928C42.2928 13.704 42.2768 13.4587 42.2661 13.192C42.2555 12.9253 42.2501 12.6587 42.2501 12.392C42.2501 12.1147 42.2501 11.864 42.2501 11.64V9.336C42.2395 9.09067 42.2341 8.824 42.2341 8.536C42.2341 8.248 42.2768 7.98667 42.3621 7.752C42.4368 7.54933 42.5541 7.42133 42.7141 7.368C42.8741 7.304 43.0395 7.27733 43.2101 7.288C43.4021 7.288 43.5515 7.34133 43.6581 7.448C43.7755 7.544 43.8608 7.66667 43.9141 7.816C43.9675 7.95467 43.9995 8.11467 44.0101 8.296C44.0208 8.46667 44.0315 8.632 44.0421 8.792C44.1595 8.52533 44.2981 8.30667 44.4581 8.136C44.6288 7.95467 44.8688 7.83733 45.1781 7.784C45.9675 7.63467 46.5968 7.83733 47.0661 8.392C47.2795 8.17867 47.5515 8.00267 47.8821 7.864C48.1381 7.768 48.3995 7.72533 48.6661 7.736C48.9328 7.736 49.1835 7.784 49.4181 7.88C49.6635 7.976 49.8821 8.11467 50.0741 8.296C50.2768 8.47733 50.4368 8.696 50.5541 8.952C50.7141 9.29333 50.8048 9.672 50.8261 10.088C50.8475 10.504 50.8688 10.8987 50.8901 11.272ZM54.4585 12.44C54.4585 12.7173 54.3572 12.9573 54.1545 13.16C53.9625 13.352 53.7278 13.448 53.4505 13.448C53.1732 13.448 52.9332 13.352 52.7305 13.16C52.5385 12.9573 52.4425 12.7173 52.4425 12.44C52.4425 12.1627 52.5385 11.9227 52.7305 11.72C52.9332 11.5173 53.1732 11.416 53.4505 11.416C53.7278 11.416 53.9625 11.5173 54.1545 11.72C54.3572 11.9227 54.4585 12.1627 54.4585 12.44ZM54.4585 6.52C54.4585 6.79733 54.3572 7.03733 54.1545 7.24C53.9625 7.432 53.7278 7.528 53.4505 7.528C53.1732 7.528 52.9332 7.432 52.7305 7.24C52.5385 7.03733 52.4425 6.79733 52.4425 6.52C52.4425 6.24267 52.5385 6.00267 52.7305 5.8C52.9332 5.59733 53.1732 5.496 53.4505 5.496C53.7278 5.496 53.9625 5.59733 54.1545 5.8C54.3572 6.00267 54.4585 6.24267 54.4585 6.52ZM61.0058 5.224C60.8671 5.096 60.7978 4.904 60.7978 4.648C60.8084 4.53067 60.8298 4.41867 60.8618 4.312C60.8938 4.19467 60.9524 4.09333 61.0378 4.008C61.2724 3.79467 61.5231 3.672 61.7898 3.64C62.0564 3.608 62.3444 3.58133 62.6538 3.56C62.8991 3.54933 63.1178 3.54933 63.3098 3.56C63.5018 3.56 63.7204 3.56 63.9658 3.56C64.3391 3.56 64.7444 3.56533 65.1818 3.576C65.6298 3.58667 66.0511 3.60267 66.4458 3.624C66.6058 3.63467 66.7658 3.656 66.9258 3.688C67.0858 3.72 67.2298 3.77867 67.3578 3.864C67.4858 3.93867 67.5871 4.04 67.6618 4.168C67.7471 4.28533 67.7951 4.43467 67.8058 4.616C67.8164 4.82933 67.7844 5.032 67.7098 5.224C67.6458 5.416 67.5551 5.60267 67.4378 5.784C67.3204 5.95467 67.1871 6.12 67.0378 6.28C66.8991 6.42933 66.7658 6.568 66.6378 6.696C66.4031 6.94133 66.1364 7.20267 65.8378 7.48C65.5391 7.75733 65.2724 8.01867 65.0378 8.264C65.4538 8.31733 65.8538 8.41333 66.2378 8.552C66.6324 8.69067 66.9791 8.88267 67.2778 9.128C67.5764 9.37333 67.8111 9.68267 67.9818 10.056C68.1631 10.4187 68.2538 10.856 68.2538 11.368C68.2538 11.88 68.1524 12.3547 67.9498 12.792C67.7578 13.2293 67.4858 13.6133 67.1338 13.944C66.7818 14.264 66.3658 14.5147 65.8858 14.696C65.4058 14.8773 64.8778 14.968 64.3018 14.968C64.0564 14.968 63.7898 14.9467 63.5018 14.904C63.2244 14.8613 62.9471 14.7973 62.6698 14.712C62.3924 14.6267 62.1258 14.52 61.8698 14.392C61.6244 14.2533 61.4111 14.088 61.2298 13.896C61.1018 13.768 60.9898 13.6187 60.8938 13.448C60.8084 13.2667 60.7551 13.0853 60.7338 12.904C60.7231 12.712 60.7604 12.5413 60.8458 12.392C60.9311 12.232 61.0804 12.1147 61.2938 12.04C61.4538 11.9867 61.6084 11.9653 61.7578 11.976C61.9071 11.9867 62.0511 12.024 62.1898 12.088C62.3284 12.1413 62.4618 12.2053 62.5898 12.28C62.7284 12.3547 62.8618 12.4293 62.9898 12.504C63.3844 12.7493 63.7951 12.8933 64.2218 12.936C64.6591 12.9787 65.0858 12.8773 65.5018 12.632C65.7364 12.4933 65.9071 12.3227 66.0138 12.12C66.1204 11.9067 66.1631 11.6933 66.1418 11.48C66.1311 11.2667 66.0618 11.064 65.9338 10.872C65.8164 10.68 65.6511 10.52 65.4378 10.392C65.2351 10.2747 65.0111 10.1947 64.7658 10.152C64.5204 10.1093 64.2751 10.0667 64.0298 10.024C63.7844 9.98133 63.5498 9.92267 63.3258 9.848C63.1018 9.77333 62.9098 9.64533 62.7498 9.464C62.5684 9.26133 62.5098 9.04267 62.5738 8.808C62.6378 8.57333 62.7551 8.344 62.9258 8.12C63.1071 7.896 63.3044 7.68267 63.5178 7.48C63.7418 7.27733 63.9178 7.10667 64.0458 6.968C64.1204 6.89333 64.2058 6.80267 64.3018 6.696C64.4084 6.58933 64.5044 6.48267 64.5898 6.376C64.6858 6.26933 64.7658 6.168 64.8298 6.072C64.9044 5.96533 64.9524 5.86933 64.9738 5.784C65.0058 5.69867 64.9898 5.64 64.9258 5.608C64.8618 5.56533 64.7818 5.544 64.6858 5.544C64.5898 5.53333 64.4831 5.53333 64.3658 5.544C64.2591 5.544 64.1738 5.544 64.1098 5.544H63.0378C62.8884 5.544 62.7231 5.54933 62.5418 5.56C62.3604 5.56 62.1738 5.55467 61.9818 5.544C61.8004 5.52267 61.6191 5.49067 61.4378 5.448C61.2671 5.40533 61.1231 5.33067 61.0058 5.224ZM73.8026 14.952C73.6106 14.952 73.4133 14.9413 73.2106 14.92C73.0186 14.888 72.8266 14.8347 72.6346 14.76C72.3466 14.6427 72.0693 14.488 71.8026 14.296C71.5466 14.0933 71.312 13.8693 71.0986 13.624C70.5866 13.048 70.1973 12.3707 69.9306 11.592C69.664 10.8027 69.5306 10.0027 69.5306 9.192C69.5306 8.08267 69.744 7.01067 70.1706 5.976C70.2453 5.79467 70.3413 5.60267 70.4586 5.4C70.5866 5.19733 70.7253 5.00533 70.8746 4.824C71.0346 4.632 71.1946 4.46133 71.3546 4.312C71.5253 4.16267 71.696 4.05067 71.8666 3.976C72.1013 3.86933 72.3573 3.76267 72.6346 3.656C72.976 3.54933 73.36 3.50133 73.7866 3.512C74.2133 3.52267 74.6026 3.57067 74.9546 3.656C75.4453 3.77333 75.8666 3.98667 76.2186 4.296C76.5706 4.59467 76.8693 4.95733 77.1146 5.384C77.36 5.8 77.552 6.25867 77.6906 6.76C77.8293 7.25067 77.9306 7.752 77.9946 8.264C78.0373 8.60533 78.0533 8.94667 78.0426 9.288C78.032 9.61867 78.0053 9.95467 77.9626 10.296C77.92 10.6053 77.8666 10.9147 77.8026 11.224C77.7493 11.5333 77.6746 11.832 77.5786 12.12C77.4826 12.408 77.36 12.6853 77.2106 12.952C77.0613 13.208 76.8746 13.448 76.6506 13.672C76.2453 14.0667 75.8026 14.376 75.3226 14.6C74.8533 14.8133 74.3466 14.9307 73.8026 14.952ZM73.7866 5.624C73.6373 5.624 73.488 5.64 73.3386 5.672C73.2 5.69333 73.0666 5.74667 72.9386 5.832C72.7893 5.928 72.656 6.04533 72.5386 6.184C72.4213 6.32267 72.32 6.46667 72.2346 6.616C72.0106 7 71.856 7.41067 71.7706 7.848C71.6853 8.28533 71.6426 8.728 71.6426 9.176C71.6426 9.63467 71.6906 10.1093 71.7866 10.6C71.8933 11.0907 72.08 11.5387 72.3466 11.944C72.4746 12.136 72.624 12.3067 72.7946 12.456C72.976 12.5947 73.184 12.696 73.4186 12.76C73.632 12.8133 73.8453 12.8293 74.0586 12.808C74.2826 12.7867 74.4906 12.7173 74.6826 12.6C74.992 12.408 75.2373 12.152 75.4186 11.832C75.6 11.512 75.7333 11.1653 75.8186 10.792C75.9146 10.4187 75.968 10.0347 75.9786 9.64C76 9.24533 76 8.888 75.9786 8.568C75.9573 8.248 75.904 7.912 75.8186 7.56C75.7333 7.208 75.6053 6.888 75.4346 6.6C75.2746 6.312 75.056 6.07733 74.7786 5.896C74.512 5.704 74.1813 5.61333 73.7866 5.624ZM88.7195 15.368C88.3675 15.4533 88.0262 15.5013 87.6955 15.512C87.3648 15.5227 87.0288 15.4533 86.6875 15.304C86.4315 15.1973 86.1968 15.0053 85.9835 14.728C85.7702 14.44 85.6208 14.1627 85.5355 13.896C85.4395 13.5547 85.4022 13.2133 85.4235 12.872C85.4448 12.5307 85.4875 12.184 85.5515 11.832C85.6262 11.5227 85.7755 11.2293 85.9995 10.952C86.2342 10.664 86.5062 10.472 86.8155 10.376C87.0608 10.2907 87.3115 10.2427 87.5675 10.232C87.8235 10.2107 88.0742 10.216 88.3195 10.248C88.5542 10.2587 88.7782 10.3013 88.9915 10.376C89.2048 10.44 89.4022 10.5467 89.5835 10.696C89.6688 10.7707 89.7488 10.872 89.8235 11C89.8982 11.1173 89.9622 11.2453 90.0155 11.384C90.0688 11.512 90.1115 11.6453 90.1435 11.784C90.1862 11.9227 90.2128 12.0507 90.2235 12.168C90.2768 12.5733 90.2875 12.9467 90.2555 13.288C90.2342 13.6293 90.1542 13.9867 90.0155 14.36C89.9088 14.6693 89.7382 14.8933 89.5035 15.032C89.2688 15.1813 89.0075 15.2933 88.7195 15.368ZM88.5435 4.216C88.5648 4.44 88.5222 4.65867 88.4155 4.872C88.3088 5.08533 88.1968 5.28267 88.0795 5.464C87.9302 5.74133 87.7808 6.01867 87.6315 6.296C87.4822 6.57333 87.3328 6.85067 87.1835 7.128C86.7782 7.85333 86.3728 8.57333 85.9675 9.288C85.5728 10.0027 85.1728 10.728 84.7675 11.464C84.5968 11.7733 84.4262 12.088 84.2555 12.408C84.0955 12.7173 83.9248 13.032 83.7435 13.352C83.6475 13.512 83.5408 13.6933 83.4235 13.896C83.3168 14.0987 83.1888 14.2853 83.0395 14.456C82.9008 14.6267 82.7408 14.76 82.5595 14.856C82.3782 14.952 82.1702 14.984 81.9355 14.952C81.7862 14.9307 81.6635 14.8613 81.5675 14.744C81.4715 14.6267 81.4182 14.4933 81.4075 14.344C81.4075 14.0987 81.4662 13.864 81.5835 13.64C81.7008 13.416 81.8182 13.1973 81.9355 12.984C82.0848 12.696 82.2395 12.4133 82.3995 12.136C82.5702 11.848 82.7355 11.5653 82.8955 11.288C83.3008 10.552 83.7062 9.82133 84.1115 9.096C84.5168 8.37067 84.9222 7.64 85.3275 6.904C85.4768 6.60533 85.6368 6.30667 85.8075 6.008C85.9782 5.70933 86.1435 5.416 86.3035 5.128C86.3888 4.97867 86.4795 4.824 86.5755 4.664C86.6715 4.504 86.7782 4.35467 86.8955 4.216C87.0128 4.06667 87.1408 3.93867 87.2795 3.832C87.4182 3.72533 87.5782 3.656 87.7595 3.624C87.9408 3.58133 88.1115 3.61333 88.2715 3.72C88.4315 3.82667 88.5222 3.98133 88.5435 4.184V4.216ZM82.8315 8.376C82.4902 8.46133 82.1328 8.504 81.7595 8.504C81.3968 8.504 81.0448 8.42933 80.7035 8.28C80.4475 8.184 80.2235 7.99733 80.0315 7.72C79.8502 7.432 79.7168 7.16 79.6315 6.904C79.5462 6.552 79.5088 6.20533 79.5195 5.864C79.5408 5.52267 79.5835 5.18133 79.6475 4.84C79.7222 4.53067 79.8768 4.23733 80.1115 3.96C80.3462 3.672 80.6182 3.47467 80.9275 3.368C81.1728 3.28267 81.4235 3.23467 81.6795 3.224C81.9355 3.20267 82.1862 3.19733 82.4315 3.208C82.6662 3.22933 82.8848 3.27733 83.0875 3.352C83.3008 3.416 83.4982 3.52267 83.6795 3.672C83.8608 3.82133 83.9995 4.00267 84.0955 4.216C84.2022 4.42933 84.2662 4.648 84.2875 4.872C84.3408 5.27733 84.3462 5.69333 84.3035 6.12C84.2715 6.536 84.1968 6.936 84.0795 7.32C83.9622 7.608 83.7915 7.83733 83.5675 8.008C83.3542 8.168 83.1088 8.29067 82.8315 8.376ZM88.1115 14.168C88.2928 14.1467 88.4262 14.088 88.5115 13.992C88.6715 13.8427 88.7675 13.6507 88.7995 13.416C88.8422 13.1813 88.8582 12.968 88.8475 12.776C88.8475 12.616 88.8155 12.424 88.7515 12.2C88.6982 11.9653 88.5808 11.8 88.3995 11.704C88.2502 11.6187 88.0848 11.576 87.9035 11.576C87.7222 11.5653 87.5568 11.5973 87.4075 11.672C87.2582 11.7467 87.1462 11.848 87.0715 11.976C87.0075 12.104 86.9702 12.248 86.9595 12.408C86.9382 12.536 86.9222 12.6907 86.9115 12.872C86.9008 13.0533 86.9062 13.2347 86.9275 13.416C86.9595 13.5867 87.0182 13.7467 87.1035 13.896C87.1888 14.0347 87.3222 14.12 87.5035 14.152C87.5888 14.1733 87.6848 14.1893 87.7915 14.2C87.9088 14.2 88.0155 14.1893 88.1115 14.168ZM82.2395 7.176C82.3248 7.16533 82.3942 7.144 82.4475 7.112C82.5115 7.08 82.5702 7.03733 82.6235 6.984C82.7835 6.824 82.8688 6.62667 82.8795 6.392C82.9008 6.14667 82.9115 5.92267 82.9115 5.72C82.9115 5.54933 82.8902 5.36267 82.8475 5.16C82.8048 4.94667 82.6928 4.79733 82.5115 4.712C82.3515 4.62667 82.1862 4.57867 82.0155 4.568C81.8448 4.54667 81.6848 4.57867 81.5355 4.664C81.3648 4.74933 81.2475 4.856 81.1835 4.984C81.1195 5.10133 81.0715 5.24 81.0395 5.4C81.0288 5.51733 81.0182 5.672 81.0075 5.864C81.0075 6.04533 81.0182 6.22667 81.0395 6.408C81.0715 6.58933 81.1302 6.75467 81.2155 6.904C81.3008 7.04267 81.4342 7.128 81.6155 7.16C81.7008 7.17067 81.7968 7.18133 81.9035 7.192C82.0208 7.20267 82.1328 7.19733 82.2395 7.176Z" fill="black"/>
<path d="M10.096 52.44C10.1493 52.6853 10.1547 52.936 10.112 53.192C10.08 53.4373 10.032 53.6613 9.968 53.864C9.84 54.28 9.69067 54.744 9.52 55.256C9.34933 55.768 9.17867 56.28 9.008 56.792C8.83733 57.304 8.672 57.7893 8.512 58.248C8.352 58.696 8.21867 59.0693 8.112 59.368C8.00533 59.6453 7.89333 59.96 7.776 60.312C7.65867 60.664 7.51467 61.0107 7.344 61.352C7.184 61.6827 6.992 61.9867 6.768 62.264C6.55467 62.5413 6.29333 62.744 5.984 62.872C5.67467 63 5.392 63.032 5.136 62.968C4.88 62.8933 4.65067 62.7653 4.448 62.584C4.24533 62.392 4.05867 62.1573 3.888 61.88C3.728 61.592 3.584 61.2987 3.456 61C3.328 60.7013 3.21067 60.4133 3.104 60.136C2.99733 59.848 2.90133 59.6027 2.816 59.4C2.48533 58.6747 2.18667 57.9067 1.92 57.096C1.65333 56.2853 1.38133 55.512 1.104 54.776C1.02933 54.5627 0.944 54.3067 0.848 54.008C0.752 53.6987 0.688 53.3947 0.656 53.096C0.634667 52.7867 0.672 52.5093 0.768 52.264C0.864 52.008 1.06667 51.832 1.376 51.736C1.44 51.7147 1.504 51.6987 1.568 51.688C1.64267 51.6667 1.712 51.6507 1.776 51.64C1.85067 51.64 1.92 51.6453 1.984 51.656C2.048 51.6667 2.11733 51.6933 2.192 51.736C2.24533 51.7573 2.29867 51.784 2.352 51.816C2.40533 51.8373 2.45333 51.8693 2.496 51.912C2.53867 51.9653 2.576 52.0187 2.608 52.072C2.65067 52.1253 2.69333 52.1787 2.736 52.232C2.768 52.3067 2.79467 52.376 2.816 52.44C2.848 52.4933 2.87467 52.5467 2.896 52.6C2.91733 52.6747 2.944 52.744 2.976 52.808C3.008 52.8613 3.03467 52.9147 3.056 52.968L3.152 53.24L5.456 59.816L7.728 53.256L7.84 52.984C7.86133 52.9307 7.88267 52.8773 7.904 52.824C7.92533 52.76 7.94667 52.6907 7.968 52.616C7.98933 52.5627 8.01067 52.5093 8.032 52.456C8.064 52.392 8.10133 52.328 8.144 52.264C8.176 52.2107 8.208 52.1573 8.24 52.104C8.28267 52.04 8.32533 51.9813 8.368 51.928C8.4 51.8853 8.43733 51.848 8.48 51.816C8.53333 51.784 8.58133 51.7573 8.624 51.736C8.70933 51.6933 8.784 51.6667 8.848 51.656C8.92267 51.6453 8.98667 51.64 9.04 51.64C9.104 51.6507 9.168 51.6667 9.232 51.688C9.30667 51.6987 9.376 51.7147 9.44 51.736C9.64267 51.7893 9.792 51.88 9.888 52.008C9.99467 52.136 10.064 52.28 10.096 52.44ZM13.4373 56.936C13.4373 57.2347 13.4373 57.5707 13.4373 57.944C13.4479 58.3173 13.4533 58.7067 13.4533 59.112C13.4533 59.5067 13.4533 59.9013 13.4533 60.296C13.4533 60.68 13.4479 61.0373 13.4373 61.368C13.4266 61.528 13.4106 61.704 13.3893 61.896C13.3679 62.0773 13.3253 62.248 13.2613 62.408C13.1973 62.568 13.0959 62.7013 12.9573 62.808C12.8293 62.904 12.6533 62.9467 12.4293 62.936C12.0986 62.9147 11.8586 62.7707 11.7093 62.504C11.5706 62.2373 11.4906 61.864 11.4693 61.384C11.4693 61.1387 11.4639 60.856 11.4533 60.536C11.4533 60.216 11.4479 59.8907 11.4373 59.56C11.4373 59.2293 11.4373 58.9093 11.4373 58.6C11.4373 58.28 11.4373 57.992 11.4373 57.736C11.4373 57.5867 11.4319 57.4053 11.4213 57.192C11.4213 56.9787 11.4266 56.76 11.4373 56.536C11.4479 56.312 11.4746 56.0987 11.5173 55.896C11.5599 55.6827 11.6293 55.5067 11.7253 55.368C11.7999 55.2827 11.9066 55.2187 12.0453 55.176C12.1839 55.1227 12.3279 55.096 12.4773 55.096C12.6373 55.096 12.7866 55.1227 12.9253 55.176C13.0746 55.2293 13.1813 55.304 13.2453 55.4C13.2879 55.464 13.3199 55.5547 13.3413 55.672C13.3626 55.7893 13.3786 55.9227 13.3893 56.072C13.4106 56.2107 13.4213 56.36 13.4213 56.52C13.4319 56.6693 13.4373 56.808 13.4373 56.936ZM12.8293 53.704C12.4986 53.7893 12.2213 53.7573 11.9973 53.608C11.7839 53.448 11.6506 53.2133 11.5973 52.904C11.5546 52.68 11.5706 52.4827 11.6453 52.312C11.7199 52.1413 11.8319 52.0133 11.9813 51.928C12.1306 51.832 12.3013 51.7893 12.4933 51.8C12.6853 51.8107 12.8773 51.8853 13.0693 52.024C13.2506 52.152 13.3786 52.3013 13.4533 52.472C13.5386 52.6427 13.5653 52.808 13.5333 52.968C13.5119 53.128 13.4426 53.2773 13.3253 53.416C13.2079 53.544 13.0426 53.64 12.8293 53.704ZM21.6751 55.944C21.7605 56.1467 21.7658 56.3707 21.6911 56.616C21.6271 56.8613 21.5045 57.0213 21.3231 57.096C21.2271 57.1387 21.0991 57.176 20.9391 57.208C20.7791 57.2293 20.6031 57.2507 20.4111 57.272C20.2298 57.2933 20.0485 57.3093 19.8671 57.32C19.6858 57.3307 19.5311 57.336 19.4031 57.336C19.4138 57.656 19.4245 57.9867 19.4351 58.328C19.4458 58.6587 19.4565 58.984 19.4671 59.304C19.4778 59.624 19.4831 59.9333 19.4831 60.232C19.4831 60.52 19.4778 60.7813 19.4671 61.016C19.4671 61.176 19.4671 61.3627 19.4671 61.576C19.4671 61.7787 19.4511 61.976 19.4191 62.168C19.3978 62.36 19.3605 62.5307 19.3071 62.68C19.2538 62.8187 19.1738 62.9093 19.0671 62.952C18.7365 63.0907 18.4325 63.128 18.1551 63.064C17.8885 63.0107 17.6965 62.8987 17.5791 62.728C17.4938 62.5893 17.4298 62.4293 17.3871 62.248C17.3445 62.056 17.3125 61.864 17.2911 61.672C17.2805 61.4693 17.2751 61.2773 17.2751 61.096C17.2858 60.904 17.2911 60.7387 17.2911 60.6C17.3018 60.152 17.3071 59.6453 17.3071 59.08C17.3178 58.504 17.3231 57.928 17.3231 57.352H17.0831C16.9551 57.352 16.7898 57.352 16.5871 57.352C16.3951 57.3413 16.1978 57.3253 15.9951 57.304C15.8031 57.272 15.6218 57.2347 15.4511 57.192C15.2805 57.1387 15.1578 57.064 15.0831 56.968C14.9658 56.8293 14.8911 56.68 14.8591 56.52C14.8378 56.36 14.8485 56.2107 14.8911 56.072C14.9445 55.9227 15.0245 55.7947 15.1311 55.688C15.2378 55.5707 15.3605 55.496 15.4991 55.464C15.6911 55.4107 15.9631 55.384 16.3151 55.384C16.6671 55.3733 16.9978 55.3733 17.3071 55.384C17.2965 55.2773 17.2911 55.176 17.2911 55.08C17.2911 54.9733 17.2858 54.872 17.2751 54.776C17.2645 54.648 17.2591 54.488 17.2591 54.296C17.2591 54.0933 17.2698 53.896 17.2911 53.704C17.3231 53.5013 17.3711 53.3147 17.4351 53.144C17.4991 52.9627 17.5898 52.824 17.7071 52.728C17.8671 52.6 18.0271 52.5307 18.1871 52.52C18.3578 52.4987 18.5125 52.52 18.6511 52.584C18.8005 52.648 18.9231 52.744 19.0191 52.872C19.1258 52.9893 19.2005 53.1227 19.2431 53.272C19.2751 53.4 19.3018 53.5547 19.3231 53.736C19.3445 53.9067 19.3551 54.088 19.3551 54.28C19.3658 54.472 19.3711 54.664 19.3711 54.856C19.3711 55.048 19.3711 55.224 19.3711 55.384H19.5311C19.6911 55.384 19.8778 55.3787 20.0911 55.368C20.3045 55.3573 20.5125 55.3627 20.7151 55.384C20.9285 55.4053 21.1205 55.4587 21.2911 55.544C21.4618 55.6187 21.5898 55.752 21.6751 55.944ZM24.2151 56.264C24.5351 56.104 24.8711 55.992 25.2231 55.928C25.5751 55.8533 25.9218 55.8373 26.2631 55.88C26.6151 55.912 26.9511 56.0027 27.2711 56.152C27.5911 56.2907 27.8898 56.4933 28.1671 56.76C28.4445 57.0373 28.6578 57.3413 28.8071 57.672C28.9565 58.0027 29.0631 58.3707 29.1271 58.776C29.1698 59.0533 29.2391 59.3093 29.3351 59.544C29.4311 59.7787 29.5325 60.0133 29.6391 60.248C29.7565 60.4827 29.8631 60.7173 29.9591 60.952C30.0658 61.1867 30.1511 61.432 30.2151 61.688C30.2685 61.9333 30.2471 62.1733 30.1511 62.408C30.0658 62.632 29.8845 62.7707 29.6071 62.824C29.4471 62.856 29.2925 62.8453 29.1431 62.792C29.0045 62.728 28.8765 62.6427 28.7591 62.536C28.6418 62.4187 28.5351 62.296 28.4391 62.168C28.3538 62.0293 28.2738 61.9013 28.1991 61.784C27.9538 62.104 27.6871 62.3547 27.3991 62.536C27.1111 62.7067 26.7645 62.8187 26.3591 62.872C26.0178 62.9147 25.6925 62.9253 25.3831 62.904C25.0738 62.8827 24.7431 62.824 24.3911 62.728C23.9325 62.6107 23.5538 62.408 23.2551 62.12C22.9671 61.8213 22.7431 61.48 22.5831 61.096C22.4338 60.7013 22.3538 60.28 22.3431 59.832C22.3325 59.384 22.3858 58.9413 22.5031 58.504C22.6525 57.928 22.8765 57.4587 23.1751 57.096C23.4738 56.7333 23.8205 56.456 24.2151 56.264ZM24.6151 58.136C24.4658 58.2853 24.3485 58.4613 24.2631 58.664C24.1778 58.8667 24.1245 59.08 24.1031 59.304C24.0925 59.528 24.1138 59.752 24.1671 59.976C24.2205 60.2 24.3058 60.3973 24.4231 60.568C24.5298 60.7173 24.7111 60.8453 24.9671 60.952C25.2231 61.048 25.4898 61.1067 25.7671 61.128C26.0871 61.1493 26.3645 61.064 26.5991 60.872C26.8445 60.68 27.0258 60.44 27.1431 60.152C27.2711 59.8533 27.3298 59.5387 27.3191 59.208C27.3085 58.8667 27.2178 58.5573 27.0471 58.28C26.9191 58.0773 26.7485 57.928 26.5351 57.832C26.3325 57.736 26.1138 57.688 25.8791 57.688C25.6445 57.6773 25.4098 57.7147 25.1751 57.8C24.9511 57.8747 24.7645 57.9867 24.6151 58.136ZM40.2183 59.272C40.2396 59.6133 40.2503 59.9387 40.2503 60.248C40.2503 60.5467 40.2396 60.8667 40.2183 61.208C40.2183 61.336 40.2183 61.48 40.2183 61.64C40.2183 61.8 40.2076 61.9547 40.1863 62.104C40.1649 62.2533 40.1276 62.392 40.0743 62.52C40.0209 62.648 39.9409 62.7493 39.8343 62.824C39.7063 62.9093 39.5623 62.968 39.4023 63C39.2423 63.0213 39.0929 63.0107 38.9543 62.968C38.8156 62.9253 38.6929 62.8453 38.5863 62.728C38.4903 62.6107 38.4369 62.4453 38.4263 62.232C38.3943 61.7413 38.3783 61.2507 38.3783 60.76C38.3783 60.5147 38.3729 60.28 38.3623 60.056C38.3623 59.832 38.3676 59.5173 38.3783 59.112C38.3783 58.9093 38.3623 58.68 38.3303 58.424C38.2983 58.1573 38.2183 57.9707 38.0903 57.864C37.9943 57.7787 37.8876 57.7307 37.7703 57.72C37.6529 57.6987 37.5356 57.7093 37.4183 57.752C37.3116 57.7947 37.2156 57.8747 37.1303 57.992C37.0449 58.0987 36.9863 58.2373 36.9543 58.408C36.9543 58.5467 36.9489 58.6907 36.9383 58.84C36.9383 58.9787 36.9436 59.112 36.9543 59.24C36.9649 59.5813 36.9703 59.9067 36.9703 60.216C36.9703 60.5147 36.9649 60.8347 36.9543 61.176C36.9436 61.3147 36.9383 61.464 36.9383 61.624C36.9489 61.784 36.9489 61.944 36.9383 62.104C36.9276 62.2533 36.8956 62.392 36.8423 62.52C36.7996 62.648 36.7196 62.7493 36.6023 62.824C36.4743 62.9093 36.3356 62.9627 36.1863 62.984C36.0476 62.9947 35.9143 62.9733 35.7863 62.92C35.6689 62.856 35.5623 62.76 35.4663 62.632C35.3809 62.504 35.3329 62.3333 35.3223 62.12C35.3009 61.8747 35.2849 61.6507 35.2743 61.448C35.2743 61.2347 35.2743 61.0107 35.2743 60.776C35.2743 60.5307 35.2796 60.28 35.2903 60.024C35.3009 59.7573 35.2956 59.5013 35.2743 59.256C35.2743 59.1813 35.2689 59.096 35.2583 59C35.2583 58.8933 35.2529 58.7867 35.2423 58.68C35.2423 58.5733 35.2316 58.472 35.2103 58.376C35.1996 58.2693 35.1783 58.184 35.1463 58.12C35.0609 57.9707 34.9063 57.8747 34.6823 57.832C34.4689 57.7893 34.2876 57.8053 34.1383 57.88C33.9889 57.9547 33.8769 58.0507 33.8023 58.168C33.7276 58.2853 33.6743 58.4133 33.6423 58.552C33.6103 58.6907 33.5943 58.84 33.5943 59C33.5943 59.1493 33.5943 59.2933 33.5943 59.432C33.5943 60.1253 33.5943 60.728 33.5943 61.24C33.6049 61.7413 33.5516 62.1467 33.4343 62.456C33.3809 62.616 33.2689 62.7387 33.0983 62.824C32.9383 62.9093 32.7623 62.952 32.5703 62.952C32.3889 62.952 32.2183 62.9093 32.0583 62.824C31.8983 62.7387 31.7916 62.6053 31.7383 62.424C31.7063 62.3067 31.6743 62.1413 31.6423 61.928C31.6209 61.704 31.6049 61.4587 31.5943 61.192C31.5836 60.9253 31.5783 60.6587 31.5783 60.392C31.5783 60.1147 31.5783 59.864 31.5783 59.64V57.336C31.5676 57.0907 31.5623 56.824 31.5623 56.536C31.5623 56.248 31.6049 55.9867 31.6903 55.752C31.7649 55.5493 31.8823 55.4213 32.0423 55.368C32.2023 55.304 32.3676 55.2773 32.5383 55.288C32.7303 55.288 32.8796 55.3413 32.9863 55.448C33.1036 55.544 33.1889 55.6667 33.2423 55.816C33.2956 55.9547 33.3276 56.1147 33.3383 56.296C33.3489 56.4667 33.3596 56.632 33.3703 56.792C33.4876 56.5253 33.6263 56.3067 33.7863 56.136C33.9569 55.9547 34.1969 55.8373 34.5063 55.784C35.2956 55.6347 35.9249 55.8373 36.3943 56.392C36.6076 56.1787 36.8796 56.0027 37.2103 55.864C37.4663 55.768 37.7276 55.7253 37.9943 55.736C38.2609 55.736 38.5116 55.784 38.7463 55.88C38.9916 55.976 39.2103 56.1147 39.4023 56.296C39.6049 56.4773 39.7649 56.696 39.8823 56.952C40.0423 57.2933 40.1329 57.672 40.1543 58.088C40.1756 58.504 40.1969 58.8987 40.2183 59.272ZM43.5466 56.936C43.5466 57.2347 43.5466 57.5707 43.5466 57.944C43.5573 58.3173 43.5626 58.7067 43.5626 59.112C43.5626 59.5067 43.5626 59.9013 43.5626 60.296C43.5626 60.68 43.5573 61.0373 43.5466 61.368C43.536 61.528 43.52 61.704 43.4986 61.896C43.4773 62.0773 43.4346 62.248 43.3706 62.408C43.3066 62.568 43.2053 62.7013 43.0666 62.808C42.9386 62.904 42.7626 62.9467 42.5386 62.936C42.208 62.9147 41.968 62.7707 41.8186 62.504C41.68 62.2373 41.6 61.864 41.5786 61.384C41.5786 61.1387 41.5733 60.856 41.5626 60.536C41.5626 60.216 41.5573 59.8907 41.5466 59.56C41.5466 59.2293 41.5466 58.9093 41.5466 58.6C41.5466 58.28 41.5466 57.992 41.5466 57.736C41.5466 57.5867 41.5413 57.4053 41.5306 57.192C41.5306 56.9787 41.536 56.76 41.5466 56.536C41.5573 56.312 41.584 56.0987 41.6266 55.896C41.6693 55.6827 41.7386 55.5067 41.8346 55.368C41.9093 55.2827 42.016 55.2187 42.1546 55.176C42.2933 55.1227 42.4373 55.096 42.5866 55.096C42.7466 55.096 42.896 55.1227 43.0346 55.176C43.184 55.2293 43.2906 55.304 43.3546 55.4C43.3973 55.464 43.4293 55.5547 43.4506 55.672C43.472 55.7893 43.488 55.9227 43.4986 56.072C43.52 56.2107 43.5306 56.36 43.5306 56.52C43.5413 56.6693 43.5466 56.808 43.5466 56.936ZM42.9386 53.704C42.608 53.7893 42.3306 53.7573 42.1066 53.608C41.8933 53.448 41.76 53.2133 41.7066 52.904C41.664 52.68 41.68 52.4827 41.7546 52.312C41.8293 52.1413 41.9413 52.0133 42.0906 51.928C42.24 51.832 42.4106 51.7893 42.6026 51.8C42.7946 51.8107 42.9866 51.8853 43.1786 52.024C43.36 52.152 43.488 52.3013 43.5626 52.472C43.648 52.6427 43.6746 52.808 43.6426 52.968C43.6213 53.128 43.552 53.2773 43.4346 53.416C43.3173 53.544 43.152 53.64 42.9386 53.704ZM45.1404 57.288C45.1404 57.0427 45.135 56.7813 45.1244 56.504C45.1244 56.2267 45.1724 55.976 45.2684 55.752C45.3537 55.5493 45.4924 55.4053 45.6844 55.32C45.887 55.224 46.0844 55.2027 46.2764 55.256C46.4684 55.288 46.6177 55.3467 46.7244 55.432C46.831 55.5173 46.9057 55.6187 46.9484 55.736C47.0017 55.8427 47.0337 55.9707 47.0444 56.12C47.055 56.2587 47.0657 56.3973 47.0764 56.536C47.183 56.344 47.3164 56.1893 47.4764 56.072C47.6364 55.9547 47.8017 55.8587 47.9724 55.784C48.143 55.7093 48.303 55.656 48.4524 55.624C48.6124 55.592 48.735 55.576 48.8204 55.576C49.2257 55.576 49.6257 55.6667 50.0204 55.848C50.4257 56.0187 50.7617 56.264 51.0284 56.584C51.1777 56.776 51.2897 56.9787 51.3644 57.192C51.4497 57.3947 51.5084 57.608 51.5404 57.832C51.583 58.056 51.6097 58.2853 51.6204 58.52C51.631 58.744 51.6417 58.9733 51.6524 59.208C51.7057 59.8907 51.7057 60.568 51.6524 61.24C51.6417 61.3787 51.6364 61.5387 51.6364 61.72C51.6364 61.9013 51.6204 62.0827 51.5884 62.264C51.567 62.4347 51.519 62.5893 51.4444 62.728C51.3804 62.856 51.2684 62.936 51.1084 62.968C50.8844 63.0213 50.6977 63.032 50.5484 63C50.4097 62.9787 50.2977 62.9307 50.2124 62.856C50.127 62.7813 50.063 62.6853 50.0204 62.568C49.9777 62.4507 49.9404 62.3173 49.9084 62.168C49.887 62.0507 49.8657 61.9173 49.8444 61.768C49.8337 61.608 49.823 61.448 49.8124 61.288C49.8124 61.128 49.807 60.9733 49.7964 60.824C49.7964 60.664 49.7964 60.52 49.7964 60.392C49.7964 60.1893 49.791 59.9653 49.7804 59.72C49.7697 59.4747 49.7697 59.2453 49.7804 59.032C49.7804 58.5307 49.647 58.152 49.3804 57.896C49.1244 57.6293 48.7724 57.5173 48.3244 57.56C47.983 57.6027 47.6844 57.7413 47.4284 57.976C47.1724 58.2 47.0497 58.4933 47.0604 58.856C47.0604 58.9947 47.0604 59.1227 47.0604 59.24C47.0604 59.3573 47.055 59.4747 47.0444 59.592C47.0444 59.7093 47.0444 59.8373 47.0444 59.976C47.0444 60.1147 47.0444 60.2693 47.0444 60.44C47.0444 60.792 47.0444 61.1653 47.0444 61.56C47.0444 61.944 46.9964 62.2587 46.9004 62.504C46.815 62.76 46.671 62.936 46.4684 63.032C46.2657 63.128 46.0257 63.1013 45.7484 62.952C45.631 62.888 45.535 62.8027 45.4604 62.696C45.3964 62.5787 45.343 62.456 45.3004 62.328C45.2684 62.2 45.247 62.072 45.2364 61.944C45.2257 61.8053 45.215 61.6773 45.2044 61.56C45.1724 61.208 45.151 60.8827 45.1404 60.584C45.1404 60.2747 45.1404 59.944 45.1404 59.592V57.288ZM66.1966 56.568C66.218 56.92 66.2126 57.2827 66.1806 57.656C66.1593 58.0293 66.122 58.392 66.0686 58.744C65.962 59.352 65.7646 59.944 65.4766 60.52C65.1886 61.096 64.7673 61.5867 64.2126 61.992C63.6366 62.4187 62.9806 62.712 62.2446 62.872C61.5086 63.0213 60.778 63.112 60.0526 63.144C59.8073 63.1653 59.5566 63.1707 59.3006 63.16C59.0553 63.16 58.8153 63.1333 58.5806 63.08C58.3886 63.048 58.2446 62.9893 58.1486 62.904C58.0953 62.872 58.0526 62.8293 58.0206 62.776C57.9886 62.7227 57.962 62.6693 57.9406 62.616C57.9086 62.5627 57.882 62.5093 57.8606 62.456C57.85 62.392 57.834 62.328 57.8126 62.264C57.802 62.2107 57.7913 62.1627 57.7806 62.12C57.7806 62.0667 57.7806 62.0187 57.7806 61.976V52.84C57.7806 52.7653 57.7806 52.696 57.7806 52.632C57.7806 52.568 57.7913 52.504 57.8126 52.44C57.834 52.2907 57.866 52.168 57.9086 52.072C57.9513 51.944 58.01 51.8533 58.0846 51.8C58.1486 51.7467 58.2126 51.7093 58.2766 51.688C58.3406 51.656 58.3993 51.6293 58.4526 51.608C58.5166 51.5867 58.5806 51.5867 58.6446 51.608C58.7193 51.6187 58.7993 51.6027 58.8846 51.56L61.5566 51.624C62.2606 51.6453 62.89 51.8107 63.4446 52.12C63.9993 52.4187 64.474 52.8027 64.8686 53.272C65.2633 53.7413 65.5726 54.2693 65.7966 54.856C66.0206 55.432 66.154 56.0027 66.1966 56.568ZM63.2206 59.608C63.4233 59.288 63.5726 58.92 63.6686 58.504C63.7646 58.088 63.8073 57.6667 63.7966 57.24C63.786 56.8027 63.7273 56.3813 63.6206 55.976C63.514 55.56 63.3646 55.192 63.1726 54.872C63.0233 54.6373 62.8313 54.4453 62.5966 54.296C62.362 54.1467 62.1006 54.0347 61.8126 53.96C61.5246 53.8747 61.2153 53.816 60.8846 53.784C60.5646 53.752 60.25 53.736 59.9406 53.736C59.9513 54.0453 59.9566 54.344 59.9566 54.632C59.9566 54.92 59.9566 55.224 59.9566 55.544C59.946 55.928 59.9406 56.3013 59.9406 56.664C59.9406 57.0267 59.9406 57.3787 59.9406 57.72V60.984C60.2713 60.9733 60.586 60.9573 60.8846 60.936C61.194 60.904 61.4873 60.84 61.7646 60.744C62.0526 60.648 62.314 60.5147 62.5486 60.344C62.794 60.1627 63.018 59.9173 63.2206 59.608ZM69.771 60.44C69.771 60.7173 69.6697 60.9573 69.467 61.16C69.275 61.352 69.0403 61.448 68.763 61.448C68.4857 61.448 68.2457 61.352 68.043 61.16C67.851 60.9573 67.755 60.7173 67.755 60.44C67.755 60.1627 67.851 59.9227 68.043 59.72C68.2457 59.5173 68.4857 59.416 68.763 59.416C69.0403 59.416 69.275 59.5173 69.467 59.72C69.6697 59.9227 69.771 60.1627 69.771 60.44ZM69.771 54.52C69.771 54.7973 69.6697 55.0373 69.467 55.24C69.275 55.432 69.0403 55.528 68.763 55.528C68.4857 55.528 68.2457 55.432 68.043 55.24C67.851 55.0373 67.755 54.7973 67.755 54.52C67.755 54.2427 67.851 54.0027 68.043 53.8C68.2457 53.5973 68.4857 53.496 68.763 53.496C69.0403 53.496 69.275 53.5973 69.467 53.8C69.6697 54.0027 69.771 54.2427 69.771 54.52ZM77.9343 55.208C77.7743 55.4533 77.5823 55.6027 77.3583 55.656C77.1449 55.7093 76.9369 55.6933 76.7343 55.608C76.5316 55.5227 76.3609 55.384 76.2223 55.192C76.0943 54.9893 76.0409 54.76 76.0623 54.504C76.0729 54.3333 76.1156 54.1467 76.1903 53.944C76.2649 53.7413 76.3556 53.5493 76.4622 53.368C76.5796 53.176 76.7023 53 76.8303 52.84C76.9689 52.6693 77.1076 52.5253 77.2463 52.408C77.5023 52.2053 77.7903 52.0293 78.1103 51.88C78.4409 51.7307 78.7823 51.6187 79.1343 51.544C79.4969 51.4693 79.8543 51.4373 80.2063 51.448C80.5689 51.4587 80.9049 51.512 81.2143 51.608C82.0676 51.8747 82.7289 52.296 83.1983 52.872C83.6676 53.448 83.9023 54.1947 83.9023 55.112C83.9023 55.5493 83.8596 55.944 83.7743 56.296C83.6996 56.6373 83.5609 56.968 83.3583 57.288C83.1663 57.608 82.9049 57.9333 82.5743 58.264C82.2543 58.5947 81.8543 58.9573 81.3743 59.352C81.2143 59.4907 81.0489 59.6293 80.8783 59.768C80.7076 59.9067 80.5369 60.0453 80.3663 60.184C80.3129 60.2267 80.2116 60.2907 80.0623 60.376C79.9129 60.4613 79.7796 60.5467 79.6623 60.632C79.5449 60.7173 79.4756 60.7973 79.4543 60.872C79.4329 60.9467 79.5183 60.9893 79.7103 61C79.9449 61.0213 80.1316 61.0267 80.2703 61.016C80.4089 61.0053 80.5956 61 80.8303 61C81.1076 61 81.3796 60.9947 81.6463 60.984C81.9129 60.9733 82.1796 60.9787 82.4463 61C82.5529 61.0107 82.6703 61.016 82.7983 61.016C82.9263 61.0053 83.0543 61.0053 83.1823 61.016C83.3103 61.016 83.4329 61.032 83.5503 61.064C83.6676 61.0853 83.7689 61.1333 83.8542 61.208C83.9396 61.2827 84.0036 61.384 84.0463 61.512C84.0889 61.64 84.1103 61.7787 84.1103 61.928C84.1209 62.0667 84.1103 62.2053 84.0783 62.344C84.0463 62.472 83.9929 62.5733 83.9183 62.648C83.7796 62.808 83.6089 62.888 83.4062 62.888C83.2036 62.8773 83.0116 62.872 82.8303 62.872H77.0863C76.9796 62.872 76.8623 62.8773 76.7343 62.888C76.6169 62.8987 76.5103 62.888 76.4143 62.856C76.2223 62.8027 76.1263 62.7013 76.1263 62.552C76.1369 62.4027 76.1423 62.248 76.1423 62.088C76.1423 61.8213 76.2063 61.576 76.3343 61.352C76.4623 61.1173 76.6223 60.904 76.8143 60.712C77.0169 60.5093 77.2303 60.3227 77.4543 60.152C77.6783 59.9813 77.8863 59.816 78.0783 59.656C78.3556 59.4107 78.6543 59.1653 78.9743 58.92C79.2943 58.6747 79.5983 58.4293 79.8863 58.184C80.2596 57.8747 80.5743 57.592 80.8303 57.336C81.0969 57.08 81.3103 56.84 81.4703 56.616C81.6303 56.392 81.7476 56.1733 81.8223 55.96C81.8969 55.736 81.9343 55.5013 81.9343 55.256C81.9343 54.712 81.7689 54.296 81.4383 54.008C81.1076 53.7093 80.6863 53.56 80.1743 53.56C79.8009 53.56 79.4489 53.64 79.1183 53.8C78.7983 53.96 78.5316 54.1947 78.3183 54.504C78.2543 54.6213 78.1903 54.744 78.1263 54.872C78.0729 54.9893 78.0089 55.1013 77.9343 55.208ZM86.4136 51.816C86.5096 51.72 86.6323 51.6613 86.7816 51.64C86.9416 51.608 87.1283 51.592 87.3416 51.592H91.2936C91.4323 51.592 91.587 51.592 91.7576 51.592C91.939 51.5813 92.1096 51.592 92.2696 51.624C92.4296 51.656 92.5683 51.7147 92.6856 51.8C92.8136 51.8747 92.9043 51.9973 92.9576 52.168C92.9896 52.2747 93.0003 52.3973 92.9896 52.536C92.9896 52.6747 92.963 52.808 92.9096 52.936C92.867 53.0533 92.7976 53.16 92.7016 53.256C92.6056 53.3413 92.4883 53.3893 92.3496 53.4C92.0723 53.4533 91.7843 53.4693 91.4856 53.448C91.187 53.416 90.899 53.4 90.6216 53.4C90.3123 53.4 90.0403 53.4107 89.8056 53.432C89.571 53.4533 89.3043 53.464 89.0056 53.464C88.8883 53.464 88.739 53.4587 88.5576 53.448C88.3763 53.4373 88.2376 53.448 88.1416 53.48C88.0563 53.5013 87.987 53.544 87.9336 53.608C87.891 53.672 87.859 53.7467 87.8376 53.832C87.8163 53.9067 87.8056 53.9867 87.8056 54.072C87.8056 54.1573 87.8056 54.232 87.8056 54.296C87.8056 54.4773 87.795 54.664 87.7736 54.856C87.763 55.0373 87.7523 55.2187 87.7416 55.4C87.7203 55.6453 87.7523 55.784 87.8376 55.816C87.9336 55.8373 88.0936 55.816 88.3176 55.752C88.7016 55.656 89.0963 55.608 89.5016 55.608C90.0456 55.608 90.5523 55.6827 91.0216 55.832C91.491 55.9707 91.8963 56.1893 92.2376 56.488C92.5896 56.776 92.8616 57.144 93.0536 57.592C93.2563 58.0293 93.3576 58.5413 93.3576 59.128C93.3576 59.2347 93.3523 59.336 93.3416 59.432C93.3416 59.528 93.331 59.624 93.3096 59.72C93.2243 60.392 92.9736 60.984 92.5576 61.496C92.1416 62.008 91.6136 62.376 90.9736 62.6C90.2163 62.888 89.4323 63.0213 88.6216 63C87.811 62.968 87.0643 62.7333 86.3816 62.296C86.1896 62.1787 86.0136 62.04 85.8536 61.88C85.6936 61.7093 85.5763 61.5173 85.5016 61.304C85.4163 61.08 85.3896 60.8507 85.4216 60.616C85.4643 60.3707 85.6083 60.1893 85.8536 60.072C86.035 59.9867 86.2003 59.96 86.3496 59.992C86.5096 60.0133 86.659 60.0667 86.7976 60.152C86.9363 60.2267 87.0696 60.3227 87.1976 60.44C87.3363 60.5467 87.475 60.6373 87.6136 60.712C87.859 60.8293 88.115 60.9307 88.3816 61.016C88.6483 61.0907 88.931 61.128 89.2296 61.128C89.891 61.128 90.419 60.952 90.8136 60.6C91.219 60.248 91.4216 59.7733 91.4216 59.176C91.4216 58.6 91.2136 58.152 90.7976 57.832C90.3816 57.5013 89.8216 57.336 89.1176 57.336C88.9363 57.336 88.755 57.3467 88.5736 57.368C88.3923 57.3893 88.211 57.4267 88.0296 57.48C87.859 57.5227 87.6883 57.5707 87.5176 57.624C87.3576 57.6773 87.1976 57.7147 87.0376 57.736C86.8776 57.7467 86.7176 57.7307 86.5576 57.688C86.4083 57.6347 86.2643 57.5227 86.1256 57.352C85.987 57.2027 85.9176 57.0213 85.9176 56.808C85.9176 56.5947 85.9283 56.3973 85.9496 56.216C85.971 55.9067 85.987 55.5973 85.9976 55.288C86.0083 54.9787 86.0243 54.6693 86.0456 54.36C86.067 54.0507 86.083 53.7467 86.0936 53.448C86.115 53.1387 86.1363 52.8293 86.1576 52.52C86.1683 52.3387 86.195 52.1947 86.2376 52.088C86.2803 51.9813 86.339 51.8907 86.4136 51.816ZM104.032 63.368C103.68 63.4533 103.339 63.5013 103.008 63.512C102.677 63.5227 102.341 63.4533 102 63.304C101.744 63.1973 101.509 63.0053 101.296 62.728C101.083 62.44 100.933 62.1627 100.848 61.896C100.752 61.5547 100.715 61.2133 100.736 60.872C100.757 60.5307 100.8 60.184 100.864 59.832C100.939 59.5227 101.088 59.2293 101.312 58.952C101.547 58.664 101.819 58.472 102.128 58.376C102.373 58.2907 102.624 58.2427 102.88 58.232C103.136 58.2107 103.387 58.216 103.632 58.248C103.867 58.2587 104.091 58.3013 104.304 58.376C104.517 58.44 104.715 58.5467 104.896 58.696C104.981 58.7707 105.061 58.872 105.136 59C105.211 59.1173 105.275 59.2453 105.328 59.384C105.381 59.512 105.424 59.6453 105.456 59.784C105.499 59.9227 105.525 60.0507 105.536 60.168C105.589 60.5733 105.6 60.9467 105.568 61.288C105.547 61.6293 105.467 61.9867 105.328 62.36C105.221 62.6693 105.051 62.8933 104.816 63.032C104.581 63.1813 104.32 63.2933 104.032 63.368ZM103.856 52.216C103.877 52.44 103.835 52.6587 103.728 52.872C103.621 53.0853 103.509 53.2827 103.392 53.464C103.243 53.7413 103.093 54.0187 102.944 54.296C102.795 54.5733 102.645 54.8507 102.496 55.128C102.091 55.8533 101.685 56.5733 101.28 57.288C100.885 58.0027 100.485 58.728 100.08 59.464C99.9093 59.7733 99.7387 60.088 99.568 60.408C99.408 60.7173 99.2373 61.032 99.056 61.352C98.96 61.512 98.8533 61.6933 98.736 61.896C98.6293 62.0987 98.5013 62.2853 98.352 62.456C98.2133 62.6267 98.0533 62.76 97.872 62.856C97.6907 62.952 97.4827 62.984 97.248 62.952C97.0987 62.9307 96.976 62.8613 96.88 62.744C96.784 62.6267 96.7307 62.4933 96.72 62.344C96.72 62.0987 96.7787 61.864 96.896 61.64C97.0133 61.416 97.1307 61.1973 97.248 60.984C97.3973 60.696 97.552 60.4133 97.712 60.136C97.8827 59.848 98.048 59.5653 98.208 59.288C98.6133 58.552 99.0187 57.8213 99.424 57.096C99.8293 56.3707 100.235 55.64 100.64 54.904C100.789 54.6053 100.949 54.3067 101.12 54.008C101.291 53.7093 101.456 53.416 101.616 53.128C101.701 52.9787 101.792 52.824 101.888 52.664C101.984 52.504 102.091 52.3547 102.208 52.216C102.325 52.0667 102.453 51.9387 102.592 51.832C102.731 51.7253 102.891 51.656 103.072 51.624C103.253 51.5813 103.424 51.6133 103.584 51.72C103.744 51.8267 103.835 51.9813 103.856 52.184V52.216ZM98.144 56.376C97.8027 56.4613 97.4453 56.504 97.072 56.504C96.7093 56.504 96.3573 56.4293 96.016 56.28C95.76 56.184 95.536 55.9973 95.344 55.72C95.1627 55.432 95.0293 55.16 94.944 54.904C94.8587 54.552 94.8213 54.2053 94.832 53.864C94.8533 53.5227 94.896 53.1813 94.96 52.84C95.0347 52.5307 95.1893 52.2373 95.424 51.96C95.6587 51.672 95.9307 51.4747 96.24 51.368C96.4853 51.2827 96.736 51.2347 96.992 51.224C97.248 51.2027 97.4987 51.1973 97.744 51.208C97.9787 51.2293 98.1973 51.2773 98.4 51.352C98.6133 51.416 98.8107 51.5227 98.992 51.672C99.1733 51.8213 99.312 52.0027 99.408 52.216C99.5147 52.4293 99.5787 52.648 99.6 52.872C99.6533 53.2773 99.6587 53.6933 99.616 54.12C99.584 54.536 99.5093 54.936 99.392 55.32C99.2747 55.608 99.104 55.8373 98.88 56.008C98.6667 56.168 98.4213 56.2907 98.144 56.376ZM103.424 62.168C103.605 62.1467 103.739 62.088 103.824 61.992C103.984 61.8427 104.08 61.6507 104.112 61.416C104.155 61.1813 104.171 60.968 104.16 60.776C104.16 60.616 104.128 60.424 104.064 60.2C104.011 59.9653 103.893 59.8 103.712 59.704C103.563 59.6187 103.397 59.576 103.216 59.576C103.035 59.5653 102.869 59.5973 102.72 59.672C102.571 59.7467 102.459 59.848 102.384 59.976C102.32 60.104 102.283 60.248 102.272 60.408C102.251 60.536 102.235 60.6907 102.224 60.872C102.213 61.0533 102.219 61.2347 102.24 61.416C102.272 61.5867 102.331 61.7467 102.416 61.896C102.501 62.0347 102.635 62.12 102.816 62.152C102.901 62.1733 102.997 62.1893 103.104 62.2C103.221 62.2 103.328 62.1893 103.424 62.168ZM97.552 55.176C97.6373 55.1653 97.7067 55.144 97.76 55.112C97.824 55.08 97.8827 55.0373 97.936 54.984C98.096 54.824 98.1813 54.6267 98.192 54.392C98.2133 54.1467 98.224 53.9227 98.224 53.72C98.224 53.5493 98.2027 53.3627 98.16 53.16C98.1173 52.9467 98.0053 52.7973 97.824 52.712C97.664 52.6267 97.4987 52.5787 97.328 52.568C97.1573 52.5467 96.9973 52.5787 96.848 52.664C96.6773 52.7493 96.56 52.856 96.496 52.984C96.432 53.1013 96.384 53.24 96.352 53.4C96.3413 53.5173 96.3307 53.672 96.32 53.864C96.32 54.0453 96.3307 54.2267 96.352 54.408C96.384 54.5893 96.4427 54.7547 96.528 54.904C96.6133 55.0427 96.7467 55.128 96.928 55.16C97.0133 55.1707 97.1093 55.1813 97.216 55.192C97.3333 55.2027 97.4453 55.1973 97.552 55.176Z" fill="black"/>
</svg>
