<svg width="206" height="72" viewBox="0 0 206 72" fill="none" xmlns="http://www.w3.org/2000/svg">
<path d="M192.168 0.752422C184.561 2.2107 178.753 4.53138 172.977 9.32746C171.419 8.88007 168.89 4.78207 168.003 5.3748C164.9 7.44819 164.473 11.3053 167.679 14.6864L151.514 19.3386C144.709 21.0614 137.841 22.2704 130.989 23.1946C131.481 24.2213 132.058 25.2303 132.652 25.8446C134.325 27.5755 138.519 26.9282 139 29.2867C140.245 35.3895 135.843 42.4991 129.644 43.1072C125.34 43.5297 145.381 54.2139 141.154 53.2984C135.62 52.0997 148.67 54.6035 143.341 52.6872C138.841 51.0692 139.484 56.1674 138.352 53.2984C135.499 53.5889 137.418 49.854 134.637 50.2222C131.144 50.7253 133.611 48.8695 132.071 51.4746C130.016 54.9479 134.564 48.0982 134.637 52.6872C134.717 57.7812 142.965 28.9916 143.341 33.8308C143.642 37.7105 140.009 43.1815 139 45.2803C135.914 51.7012 141.132 32.4909 142.91 27.972C145.643 21.0255 134.769 62.5318 134.637 54.107C134.013 44.0721 139.761 53.6417 141.154 53.2984C140.399 57.0771 135.557 47.8461 135.987 53.5543C137.836 52.6809 136.249 50.3099 138.352 53.2984C140.671 56.5934 134.6 49.4715 136.135 53.1968C137.099 55.5356 137.368 51.2677 138.106 53.6872C139.608 58.6122 152.124 55.4179 149.48 57.2737C150.451 63.7557 137.82 47.8429 138.352 53.2984L139 50.9736C137.291 46.4939 167.374 20.0298 130.988 47.3289C136.388 41.5983 135.359 58.9947 138.352 53.2984C140.876 53.7319 138.901 55.868 141.154 56.1429C142.176 56.3006 140.089 53.2311 141.154 53.2984C148.247 53.8905 130.385 63.5993 138.352 61.0343C140.49 70.4325 140.807 43.6953 141.154 53.2984L142.91 57.2737C138.599 50.1641 147.723 70.5681 152.11 64.0673L163.576 53.2984C169.994 47.9337 174.339 41.3286 177.17 33.8308C185.76 33.8125 193.2 32.9264 198.679 31.1475L201.636 25.284C194.3 21.0769 188.39 16.4603 182.221 11.0773C184.564 6.70189 188.476 3.92778 192.168 0.752422ZM182.925 17.2328C183.517 17.1651 184.112 17.3352 184.578 17.7059C185.045 18.0765 185.345 18.6172 185.412 19.2091C185.48 19.801 185.31 20.3956 184.939 20.862C184.569 21.3284 184.028 21.6285 183.436 21.6962C182.844 21.7639 182.25 21.5937 181.783 21.2231C181.317 20.8525 181.017 20.3117 180.949 19.7199C180.881 19.128 181.052 18.5334 181.422 18.067C181.793 17.6006 182.334 17.3005 182.925 17.2328ZM165.881 24.8216C167.597 27.401 158.925 28.6719 159.62 31.691C160.181 34.1271 165.937 32.0532 166.588 34.4668C168.463 41.4231 160.372 50.3842 153.25 51.4746C149.289 52.0816 143.065 48.6665 143.341 44.669C143.618 40.6547 152.926 43.1039 154.135 39.2658C155.115 36.1572 148.313 33.7117 149.48 30.6681C150.843 27.1117 157.23 23.4075 160.455 23.0122C163.68 22.617 164.915 23.4475 165.881 24.8216Z" fill="black"/>
<rect x="142.152" y="26.8011" width="3.32779" height="20.9895" transform="rotate(14.5807 142.152 26.8011)" fill="black"/>
<path d="M151 65.5C146.5 68 140.381 66.9763 133.841 61.221C127.301 55.4657 124.461 48.0041 127.496 44.5551C130.531 41.1062 138.293 42.9758 144.833 48.7311C151.373 54.4864 154.035 62.051 151 65.5Z" fill="black"/>
<path d="M31.152 46.544C31.12 46.928 31.072 47.328 31.008 47.744C30.944 48.16 30.832 48.544 30.672 48.896C30.512 49.28 30.304 49.568 30.048 49.76C29.696 50.08 29.28 50.256 28.8 50.288C28.352 50.448 27.92 50.496 27.504 50.432C27.088 50.368 26.704 50.256 26.352 50.096C25.904 49.808 25.568 49.472 25.344 49.088C25.152 48.672 25.008 48.24 24.912 47.792C24.816 47.344 24.768 46.88 24.768 46.4C24.768 45.92 24.768 45.472 24.768 45.056V41.312L24.72 33.968C24.72 33.456 24.72 33.056 24.72 32.768C24.72 32.48 24.72 32.224 24.72 32C24.72 31.744 24.704 31.472 24.672 31.184C24.672 30.864 24.672 30.416 24.672 29.84C24.672 29.744 24.672 29.584 24.672 29.36C24.704 29.104 24.688 28.448 24.624 27.392C23.376 29.472 22.336 31.152 21.504 32.432C20.704 33.68 20.016 34.656 19.44 35.36C18.896 36.032 18.416 36.496 18 36.752C17.584 36.976 17.152 37.104 16.704 37.136C16.448 37.168 16.192 37.12 15.936 36.992C15.68 36.864 15.424 36.704 15.168 36.512C14.944 36.32 14.72 36.128 14.496 35.936C14.304 35.712 14.144 35.504 14.016 35.312C13.248 34.352 12.384 33.2 11.424 31.856C10.464 30.512 9.472 28.88 8.448 26.96C8.448 26.992 8.432 27.52 8.4 28.544C8.4 29.568 8.4 30.848 8.4 32.384C8.4 33.888 8.384 35.52 8.352 37.28C8.352 39.008 8.336 40.624 8.304 42.128C8.304 43.632 8.288 44.896 8.256 45.92C8.224 46.912 8.192 47.408 8.16 47.408C8.16 47.952 8.032 48.464 7.776 48.944C7.52 49.392 7.168 49.76 6.72 50.048C6.304 50.336 5.808 50.496 5.232 50.528C4.656 50.56 4.032 50.4 3.36 50.048C2.944 49.792 2.624 49.424 2.4 48.944C2.208 48.464 2.08 48.016 2.016 47.6C1.984 47.152 1.952 46.72 1.92 46.304C1.92 45.888 1.92 45.456 1.92 45.008L1.968 41.264L2.016 33.872V27.44C2.016 24.656 2.112 21.92 2.304 19.232C2.304 18.88 2.336 18.56 2.4 18.272C2.496 17.952 2.608 17.648 2.736 17.36C2.992 16.848 3.328 16.464 3.744 16.208C4.224 15.92 4.736 15.776 5.28 15.776C5.504 15.776 5.712 15.792 5.904 15.824C6.128 15.824 6.336 15.84 6.528 15.872C7.168 16 7.712 16.384 8.16 17.024C8.64 17.632 9.088 18.16 9.504 18.608C9.76 18.896 10.032 19.248 10.32 19.664C10.608 20.08 10.896 20.512 11.184 20.96C11.472 21.408 11.744 21.84 12 22.256C12.256 22.672 12.48 23.04 12.672 23.36C13.504 24.704 14.24 25.936 14.88 27.056C15.552 28.176 16.176 29.136 16.752 29.936C16.848 29.84 16.96 29.712 17.088 29.552C17.216 29.36 17.344 29.168 17.472 28.976C17.632 28.752 17.76 28.544 17.856 28.352C17.984 28.16 18.08 28 18.144 27.872C18.464 27.36 18.784 26.864 19.104 26.384C19.424 25.872 19.76 25.344 20.112 24.8C20.496 24.224 20.88 23.6 21.264 22.928C21.68 22.256 22.16 21.488 22.704 20.624C22.928 20.24 23.216 19.776 23.568 19.232C23.92 18.688 24.32 18.16 24.768 17.648C25.216 17.136 25.68 16.704 26.16 16.352C26.672 15.968 27.184 15.776 27.696 15.776C27.952 15.776 28.176 15.792 28.368 15.824C28.56 15.824 28.752 15.84 28.944 15.872C29.328 15.904 29.696 16.08 30.048 16.4C30.304 16.656 30.496 16.928 30.624 17.216C30.752 17.632 30.832 17.984 30.864 18.272C30.896 18.496 30.912 18.704 30.912 18.896C30.944 19.088 30.96 19.28 30.96 19.472C30.96 21.264 30.976 23.04 31.008 24.8C31.04 26.56 31.056 28.336 31.056 30.128C31.056 32.304 31.056 34.544 31.056 36.848C31.088 39.152 31.104 41.392 31.104 43.568C31.104 44.016 31.12 44.496 31.152 45.008C31.184 45.52 31.184 46.032 31.152 46.544ZM62.2061 18.656C62.3981 20.192 62.5101 21.984 62.5421 24.032C62.5741 26.048 62.5421 28.096 62.4461 30.176C62.3821 32.224 62.2381 34.176 62.0141 36.032C61.7901 37.856 61.5181 39.328 61.1981 40.448C60.9741 41.12 60.7021 41.824 60.3821 42.56C60.0941 43.264 59.7741 43.904 59.4221 44.48C58.9101 45.344 58.2861 46.112 57.5501 46.784C56.8141 47.424 55.9981 47.984 55.1021 48.464C54.2381 48.912 53.3101 49.264 52.3181 49.52C51.3581 49.776 50.3981 49.92 49.4381 49.952C47.7421 50.016 46.1261 49.776 44.5901 49.232C43.0861 48.656 41.6941 47.76 40.4141 46.544C39.4541 45.616 38.6861 44.624 38.1101 43.568C37.5341 42.512 37.0861 41.408 36.7661 40.256C36.4461 39.072 36.2381 37.856 36.1421 36.608C36.0781 35.36 36.0461 34.08 36.0461 32.768C36.0461 32.16 36.0301 31.408 35.9981 30.512C35.9981 29.584 35.9981 28.64 35.9981 27.68C35.9981 26.688 35.9981 25.728 35.9981 24.8C35.9981 23.872 36.0141 23.088 36.0461 22.448C36.0461 22.032 36.0461 21.584 36.0461 21.104C36.0461 20.592 36.0621 20.096 36.0941 19.616C36.1581 19.104 36.2541 18.624 36.3821 18.176C36.5101 17.696 36.7021 17.264 36.9581 16.88C37.2461 16.464 37.6461 16.16 38.1581 15.968C38.6701 15.776 39.1981 15.68 39.7421 15.68C40.3181 15.68 40.8621 15.792 41.3741 16.016C41.8861 16.24 42.3021 16.56 42.6221 16.976C42.7821 17.232 42.8941 17.488 42.9581 17.744C43.0221 18 43.0701 18.288 43.1021 18.608C43.1661 19.664 43.1981 20.864 43.1981 22.208C43.2301 23.552 43.2301 24.864 43.1981 26.144C43.1981 27.392 43.1821 28.544 43.1501 29.6C43.1181 30.656 43.1021 31.44 43.1021 31.952C43.1021 33.872 43.1981 35.616 43.3901 37.184C43.5821 38.72 44.0301 40 44.7341 41.024C45.3741 41.952 46.1261 42.544 46.9901 42.8C47.8541 43.056 48.7181 43.136 49.5821 43.04C50.3821 42.944 51.1821 42.656 51.9821 42.176C52.8141 41.664 53.4701 40.928 53.9501 39.968C54.1421 39.616 54.3021 39.216 54.4301 38.768C54.5581 38.32 54.6541 37.904 54.7181 37.52C54.8461 36.304 54.9581 34.896 55.0541 33.296C55.1501 31.664 55.2301 30 55.2941 28.304C55.3581 26.608 55.3901 24.944 55.3901 23.312C55.3901 21.68 55.3741 20.208 55.3421 18.896C55.4061 18.32 55.5821 17.792 55.8701 17.312C56.1261 16.896 56.4941 16.528 56.9741 16.208C57.4541 15.888 58.1101 15.728 58.9421 15.728C59.6141 15.76 60.1581 15.936 60.5741 16.256C60.9901 16.544 61.3261 16.864 61.5821 17.216C61.8701 17.632 62.0781 18.112 62.2061 18.656ZM89.652 46.544C89.908 47.024 89.924 47.504 89.7 47.984C89.54 48.496 89.268 48.88 88.884 49.136C88.692 49.296 88.516 49.44 88.356 49.568C88.196 49.664 88.02 49.744 87.828 49.808C87.476 50 87.06 50.064 86.58 50C86.388 50 86.212 49.968 86.052 49.904C85.892 49.84 85.732 49.76 85.572 49.664C85.412 49.568 85.236 49.472 85.044 49.376C84.884 49.248 84.724 49.12 84.564 48.992C84.372 48.832 84.196 48.688 84.036 48.56C83.876 48.432 83.732 48.288 83.604 48.128C83.444 47.968 83.3 47.808 83.172 47.648C83.044 47.488 82.916 47.344 82.788 47.216L82.212 46.592L72.996 36.944L73.14 46.592V47.024C73.14 47.152 73.124 47.296 73.092 47.456C73.06 47.584 73.028 47.728 72.996 47.888C72.9 48.304 72.788 48.672 72.66 48.992C72.596 49.184 72.5 49.344 72.372 49.472C72.276 49.6 72.164 49.728 72.036 49.856C71.684 50.176 71.268 50.352 70.788 50.384C70.308 50.544 69.86 50.592 69.444 50.528C69.06 50.496 68.66 50.384 68.244 50.192C67.924 50 67.636 49.68 67.38 49.232C67.316 49.104 67.268 49.024 67.236 48.992C67.236 48.96 67.204 48.848 67.14 48.656C66.948 48.336 66.852 48.016 66.852 47.696C66.82 47.504 66.788 47.328 66.756 47.168C66.756 47.008 66.74 46.832 66.708 46.64C66.676 46.512 66.66 46.384 66.66 46.256C66.66 46.128 66.66 46 66.66 45.872C66.692 45.712 66.708 45.584 66.708 45.488C66.708 45.36 66.708 45.216 66.708 45.056L66.66 41.264L66.612 34.208C66.612 32.16 66.564 29.952 66.468 27.584C66.436 26.432 66.42 25.408 66.42 24.512C66.42 23.616 66.436 22.608 66.468 21.488V21.296C66.532 20.944 66.564 20.608 66.564 20.288C66.564 19.936 66.58 19.6 66.612 19.28C66.612 18.64 66.756 18 67.044 17.36C67.236 16.88 67.572 16.496 68.052 16.208C68.308 16.048 68.548 15.952 68.772 15.92C69.028 15.856 69.3 15.792 69.588 15.728C69.812 15.728 70.02 15.744 70.212 15.776C70.436 15.808 70.644 15.84 70.836 15.872C71.252 15.936 71.636 16.112 71.988 16.4C72.084 16.496 72.164 16.608 72.228 16.736C72.324 16.864 72.404 17.024 72.468 17.216C72.628 17.472 72.74 17.84 72.804 18.32C72.836 18.512 72.852 18.704 72.852 18.896C72.884 19.088 72.9 19.296 72.9 19.52V21.488L72.948 27.344C73.46 26.896 73.956 26.432 74.436 25.952C74.948 25.472 75.444 24.96 75.924 24.416C76.788 23.52 77.636 22.656 78.468 21.824C79.332 20.96 80.196 20.112 81.06 19.28L81.204 19.136C81.46 18.88 81.716 18.64 81.972 18.416C82.26 18.16 82.532 17.92 82.788 17.696C83.268 17.152 83.86 16.768 84.564 16.544C85.012 16.256 85.54 16.144 86.148 16.208C86.436 16.24 86.692 16.304 86.916 16.4C87.172 16.496 87.412 16.624 87.636 16.784C87.796 16.944 87.956 17.088 88.116 17.216C88.276 17.312 88.404 17.44 88.5 17.6C88.756 17.824 88.916 18.16 88.98 18.608C88.98 18.96 88.916 19.28 88.788 19.568C88.692 19.728 88.596 19.888 88.5 20.048C88.404 20.208 88.292 20.368 88.164 20.528C88.004 20.72 87.86 20.896 87.732 21.056C87.604 21.216 87.46 21.376 87.3 21.536C87.172 21.696 87.028 21.84 86.868 21.968C86.74 22.096 86.612 22.24 86.484 22.4L85.86 23.024L76.884 32.192C77.364 32.672 77.86 33.184 78.372 33.728C78.916 34.24 79.428 34.752 79.908 35.264C80.388 35.744 80.836 36.208 81.252 36.656C81.668 37.072 82.02 37.424 82.308 37.712C83.172 38.608 84.004 39.504 84.804 40.4C85.604 41.264 86.388 42.144 87.156 43.04L87.3 43.184C87.556 43.44 87.796 43.712 88.02 44C88.244 44.256 88.452 44.512 88.644 44.768C89.124 45.312 89.46 45.904 89.652 46.544ZM123.364 46.736C123.396 46.928 123.412 47.12 123.412 47.312C123.444 47.472 123.46 47.664 123.46 47.888C123.46 48.272 123.348 48.624 123.124 48.944C123.028 49.104 122.9 49.264 122.74 49.424C122.58 49.552 122.388 49.664 122.164 49.76C121.364 50.208 120.516 50.368 119.62 50.24C119.172 50.112 118.772 49.904 118.42 49.616C118.356 49.552 118.308 49.52 118.276 49.52C118.244 49.488 118.212 49.44 118.18 49.376C118.148 49.344 118.116 49.312 118.084 49.28C118.052 49.216 118.004 49.168 117.94 49.136C117.78 48.976 117.652 48.832 117.556 48.704C117.46 48.544 117.364 48.384 117.268 48.224C117.204 48.064 117.124 47.92 117.028 47.792C116.964 47.632 116.884 47.472 116.788 47.312C116.724 47.184 116.66 47.072 116.596 46.976C116.532 46.848 116.484 46.72 116.452 46.592C116.324 46.304 116.244 46.048 116.212 45.824L115.204 43.472C112.996 43.472 110.788 43.488 108.58 43.52C106.404 43.52 104.212 43.504 102.004 43.472L100.996 45.824C100.932 45.952 100.884 46.08 100.852 46.208C100.852 46.336 100.82 46.464 100.756 46.592C100.692 46.72 100.628 46.848 100.564 46.976C100.532 47.072 100.484 47.184 100.42 47.312C100.324 47.472 100.228 47.632 100.132 47.792C100.068 47.92 99.9881 48.064 99.8921 48.224C99.8281 48.384 99.7481 48.544 99.6521 48.704C99.5561 48.832 99.4281 48.976 99.2681 49.136C99.2041 49.168 99.1561 49.216 99.1241 49.28C99.0921 49.312 99.0601 49.344 99.0281 49.376C98.9961 49.44 98.9641 49.488 98.9321 49.52C98.9001 49.52 98.8521 49.552 98.7881 49.616C98.4361 49.904 98.0361 50.112 97.5881 50.24C96.6921 50.368 95.8441 50.208 95.0441 49.76C94.8201 49.664 94.6281 49.552 94.4681 49.424C94.3081 49.264 94.1801 49.104 94.0841 48.944C93.8601 48.624 93.7481 48.272 93.7481 47.888C93.7481 47.664 93.7481 47.472 93.7481 47.312C93.7801 47.12 93.8121 46.928 93.8441 46.736C93.9081 46.448 93.9881 46.16 94.0841 45.872C94.1801 45.584 94.2281 45.44 94.2281 45.44L104.212 20.864L104.5 20.096C104.564 19.904 104.644 19.728 104.74 19.568C104.836 19.408 104.916 19.216 104.98 18.992C105.14 18.576 105.316 18.208 105.508 17.888C105.604 17.696 105.716 17.52 105.844 17.36C105.972 17.2 106.1 17.04 106.228 16.88C106.42 16.624 106.692 16.416 107.044 16.256C107.492 16.096 108.004 16.016 108.58 16.016C109.188 16.016 109.716 16.096 110.164 16.256C110.516 16.416 110.788 16.624 110.98 16.88C111.204 17.168 111.444 17.504 111.7 17.888C111.892 18.208 112.068 18.576 112.228 18.992C112.292 19.216 112.372 19.408 112.468 19.568C112.564 19.728 112.644 19.904 112.708 20.096L112.996 20.864L122.98 45.44C122.98 45.44 123.028 45.584 123.124 45.872C123.22 46.16 123.3 46.448 123.364 46.736ZM111.988 34.976C111.572 34.048 111.14 33.088 110.692 32.096C110.276 31.104 109.828 30.096 109.348 29.072C109.22 28.784 109.092 28.496 108.964 28.208C108.836 27.888 108.708 27.584 108.58 27.296C108.484 27.584 108.372 27.888 108.244 28.208C108.116 28.496 107.988 28.784 107.86 29.072C107.38 30.096 106.916 31.104 106.468 32.096C106.052 33.088 105.636 34.048 105.22 34.976L104.356 37.088H112.852L111.988 34.976Z" fill="black"/>
</svg>
